<svg xmlns="http://www.w3.org/2000/svg" viewBox="0 0 203.925 91.862503" height="91.863" width="203.925"><path d="M69.365 54.57c2.69 0 4.46-1.113 4.46-4.916 0-3.805-1.77-5.05-4.46-5.05H58.742v9.967h10.623zM68.117 35.36c2.69 0 4.46-.723 4.46-4.525 0-3.806-1.77-4.328-4.46-4.328h-9.375v8.853h9.375zM46.02 16.275h22.097c11.346 0 17.38 1.965 17.38 11.934 0 7.61-2.82 9.967-7.344 11.213 4.46.92 8.592 3.476 8.592 11.542 0 10.1-4.657 13.574-17.38 13.574H46.02V16.274" fill="#9c1b20"/><path d="M88.382 16.275h34.56v11.08h-21.71v7.412h17.51V45.85h-17.51v7.934h21.71V64.54h-34.56V16.275" fill="#d01e25"/><path d="M123.923 63.49l1.968-10.624c1.575.394 11.805 1.64 16.197 1.64 6.1 0 7.15-.656 7.15-4 0-3.213-.917-3.477-8.46-4.853-13.97-2.493-17.05-4.526-17.05-15.74 0-11.016 7.018-14.294 18.558-14.294 5.574 0 15.41.982 17.837 1.77l-1.967 10.688c-4-.59-10.1-1.508-15.935-1.508-4.657 0-5.576.983-5.576 3.606 0 3.28.92 3.476 7.61 4.656 14.95 2.69 18.1 4.263 18.1 15.805 0 10.887-5.97 14.56-20.396 14.56-8.46 0-16.002-1.25-18.035-1.706" fill="#9c1b20"/><path d="M175.664 27.355h-15.346v-11.08h43.608v11.08h-15.41V64.54h-12.852V27.354" fill="#d01e25"/><path d="M29.15 39.776c.056-.633 1.48-.835 2.176-2.24.262 1.548 1.563 2.155 1.434 2.777l-.017-.007c.146-.618 1.585-.61 2.48-1.897.03 1.565 1.233 2.357 1.013 2.952l-.016-.01c.236-.588 1.657-.37 2.73-1.515-.197 1.555.876 2.512.572 3.07l-.014-.01c.318-.55 1.693-.13 2.922-1.103-.42 1.508.5 2.613.118 3.12l-.012-.014c.395-.496 1.694.12 3.05-.665-.635 1.43.116 2.658-.334 3.103l-.01-.015c.46-.43 1.658.367 3.113-.213-.837 1.325-.273 2.647-.784 3.023l-.007-.018c.522-.36 1.587.604 3.11.243-1.02 1.187-.652 2.578-1.213 2.875l-.005-.017c.568-.282 1.483.828 3.044.692-1.185 1.026-1.026 2.457-1.622 2.67l-.003-.02c.603-.196 1.348 1.034 2.91 1.127-1.32.843-1.37 2.28-1.99 2.405l-.003-.018c.625-.108 1.183 1.22 2.716 1.54-1.427.643-1.686 2.057-2.32 2.09l.002-.02c.633-.013.992 1.38 2.46 1.92-1.503.426-1.966 1.786-2.598 1.727l.005-.02c.63.078.78 1.51 2.157 2.257-1.553.204-2.208 1.484-2.823 1.333l.007-.018c.612.17.554 1.606 1.806 2.547-1.566-.026-2.4 1.145-2.988.906l.01-.018c.58.258.314 1.67 1.416 2.783-1.545-.25-2.54.787-3.087.462l.012-.013c.537.337.066 1.696.996 2.958-1.493-.475-2.628.406-3.12.007l.013-.012c.48.41-.183 1.69.554 3.073-1.408-.688-2.66.017-3.09-.446l.016-.014c.416.48-.426 1.647.1 3.123-1.293-.888-2.635-.37-2.99-.892l.015-.01c.344.535-.66 1.566-.353 3.102-1.15-1.065-2.555-.747-2.83-1.318l.017-.006c.262.578-.88 1.454-.802 3.018-.983-1.22-2.417-1.11-2.608-1.717l.02-.003c.17.61-1.085 1.31-1.234 2.868-.795-1.35-2.23-1.45-2.33-2.076l.02-.002c.082.63-1.264 1.138-1.638 2.66-.59-1.452-1.995-1.762-2.005-2.395h.02c-.01.635-1.414.944-2.007 2.393-.372-1.523-1.718-2.032-1.633-2.66l.017.004c-.1.627-1.535.726-2.332 2.075-.148-1.56-1.403-2.26-1.23-2.87l.018.007c-.19.604-1.626.493-2.61 1.71.08-1.565-1.06-2.44-.8-3.016l.017.01c-.277.57-1.68.25-2.832 1.314.307-1.537-.692-2.568-.35-3.103l.015.013c-.36.525-1.698.004-2.994.886.528-1.474-.31-2.64.106-3.12l.013.017c-.43.465-1.682-.242-3.092.443.738-1.383.078-2.66.56-3.07l.01.013c-.494.398-1.628-.483-3.122-.01.93-1.262.463-2.62 1-2.96l.008.02c-.547.32-1.54-.718-3.088-.468 1.105-1.11.84-2.525 1.42-2.78l.005.02c-.588.237-1.42-.934-2.986-.913 1.255-.94 1.197-2.376 1.81-2.546l.002.02c-.616.15-1.27-1.13-2.823-1.336 1.376-.747 1.53-2.177 2.16-2.254v.02c-.633.058-1.092-1.302-2.597-1.734 1.47-.536 1.83-1.927 2.464-1.915l-.004.02c-.632-.03-.888-1.446-2.315-2.092 1.532-.316 2.09-1.644 2.717-1.536l-.006.018c-.624-.126-.67-1.562-1.99-2.406 1.566-.092 2.31-1.322 2.915-1.126l-.01.017c-.596-.213-.434-1.64-1.614-2.67 1.56.138 2.475-.97 3.045-.688l-.01.016c-.56-.3-.19-1.688-1.21-2.878 1.523.364 2.59-.6 3.11-.238l-.01.013c-.512-.376.055-1.698-.78-3.02 1.453.58 2.65-.218 3.114.215l-.016.013c-.45-.446.304-1.672-.33-3.104 1.356.787 2.654.173 3.05.67l-.017.007c-.38-.507.544-1.608.125-3.116 1.227.973 2.602.555 2.92 1.103l-.016.008c-.305-.557.77-1.513.576-3.068 1.07 1.144 2.492.93 2.727 1.52l-.02.003c-.216-.594.985-1.385 1.02-2.95.892 1.286 2.33 1.283 2.476 1.9h-.02c-.13-.62 1.175-1.226 1.437-2.77.697 1.403 2.12 1.608 2.175 2.24v-.017c-.04-.634 1.34-1.044 1.823-2.534.483 1.49 1.863 1.9 1.824 2.533v.013" fill="#b5c3c8"/><path d="M65.513 73.468c-1.605 0-2.51 1.337-2.51 3.928 0 2.593.947 3.97 2.55 3.97 1.606 0 2.51-1.336 2.51-3.928 0-2.592-.946-3.97-2.55-3.97m0 11.376c-3.91 0-6.645-2.613-6.645-7.406 0-4.793 2.776-7.446 6.686-7.446 3.908 0 6.645 2.612 6.645 7.404 0 4.795-2.78 7.448-6.687 7.448M78.493 73.61v1.996H83v3.375h-4.507v5.64h-3.97V70.216H85.92v3.395h-7.427M102.46 84.618V81.18c0-1.417.02-2.713.08-3.825-.432 1.072-1.172 2.737-1.665 3.765l-1.893 3.992-1.893-3.992c-.494-1.028-1.235-2.693-1.667-3.765.06 1.112.082 2.408.082 3.826v3.438H91.76v-14.4h3.663l1.768 3.846c.866 1.852 1.587 3.538 1.812 4.342.247-.824.906-2.387 1.81-4.342l1.77-3.845h3.62v14.398h-3.743M116.405 77.972c-.514-1.85-.74-2.632-.925-3.6-.186.968-.413 1.77-.927 3.6l-.266.948h2.386l-.268-.948zm2.016 6.647l-.78-2.532h-4.32l-.782 2.53h-4.278l5.223-14.4h4.034l5.225 14.4h-4.32M129.817 73.632h-.987v7.57h.864c2.49 0 3.456-.945 3.456-3.805 0-2.653-.843-3.765-3.333-3.765m-.35 10.987h-4.67V70.217h5.04c4.528 0 7.407 1.707 7.407 7.118 0 5.41-2.674 7.283-7.776 7.283M139.752 84.618h4.074v-14.4h-4.073v14.4zM152.363 84.845c-2.324 0-4.567-.763-6.07-1.75l1.935-3.127c1.05.722 2.88 1.44 4.218 1.44 1.418 0 1.872-.246 1.872-.924 0-.537-.514-.864-2.45-1.32-3.474-.8-5.142-1.746-5.142-4.626 0-2.716 2.2-4.546 5.678-4.546 2.45 0 4.216.596 5.74 1.666l-1.935 3.125c-1.276-.862-2.55-1.356-4.01-1.356-1.195 0-1.482.37-1.482.884 0 .536.513.783 2.365 1.216 3.62.862 5.225 1.974 5.225 4.67 0 3.288-2.49 4.65-5.945 4.65M166.766 73.468c-1.605 0-2.512 1.337-2.512 3.928 0 2.593.947 3.97 2.554 3.97 1.603 0 2.508-1.336 2.508-3.928 0-2.592-.946-3.97-2.55-3.97m0 11.376c-3.91 0-6.645-2.613-6.645-7.406 0-4.793 2.776-7.446 6.687-7.446 3.91 0 6.644 2.612 6.644 7.404 0 4.795-2.776 7.448-6.684 7.448M185.156 84.618l-3.435-4.752c-.635-.885-1.87-2.735-2.24-3.373.1.638.123 2.55.123 3.723v4.402h-3.827v-14.4h3.518l3.167 4.257c.66.887 1.935 2.798 2.244 3.396-.103-.637-.124-2.55-.124-3.722v-3.93h3.826v14.4h-3.25" fill="#fff"/><path d="M18.984 79.825c-1.06.294-1.9-.067-2.606-.752l.718-1.002c.66.594 1.115.7 1.632.557.638-.177.903-.665.713-1.35-.18-.65-.56-.947-1.9-1.378-1.12-.362-2.037-.767-2.405-2.09-.34-1.226.233-2.333 1.544-2.698.972-.27 1.652-.017 2.36.576l-.652 1.01c-.56-.427-.89-.542-1.418-.395-.566.157-.778.604-.63 1.132.173.627.56.895 1.664 1.236 1.233.383 2.244.802 2.634 2.21.374 1.345-.162 2.53-1.654 2.945M22.626 78.67l-2.34-8.417 1.18-.327 2.337 8.416-1.177.328M25.548 77.858l-2.34-8.417 1.177-.326 2.02 7.263 2.695-.75.32 1.155-3.872 1.076M32.112 76.032l-.877.244-4.505-7.814 1.287-.358 2.147 3.95c.217.406.724 1.392.867 1.675-.023-.318-.093-1.413-.12-1.884l-.213-4.487 1.25-.35.165 9.022M35.43 75.11l-2.34-8.417 3.956-1.1.32 1.142-2.78.772.625 2.25 1.817-.505.315 1.13-1.817.503.767 2.755 2.934-.816.317 1.142-4.112 1.144M41.03 65.715l-1.093.304.688 2.478 1.095-.305c.757-.21 1.123-.714.88-1.592-.242-.865-.86-1.082-1.57-.885m3.178 6.954l-2.293-3.313-.975.27 1.02 3.667-1.178.327-2.342-8.415 2.37-.66c1.227-.34 2.53.01 2.994 1.683.337 1.213-.002 2.046-.71 2.58l2.425 3.496-1.312.365" fill="#211d1d"/><path d="M69.233 12.03V4.937c0-.61.018-1.576.018-2.082-.118.71-.338 1.455-.59 2.352l-2.067 7.158-2.064-7.158c-.255-.897-.44-1.624-.576-2.352 0 .506.016 1.404.016 2.082v7.09h-1.1V.183h1.302l1.794 6.227c.288 1.032.543 2.013.627 2.808.103-.795.372-1.776.66-2.81L69.048.183h1.287V12.03h-1.1M76.224 4.886c-.254-1.116-.508-2.35-.643-3.232-.118.88-.39 2.15-.643 3.25l-.66 2.944h2.607l-.66-2.962zm1.607 7.143l-.693-3.082H74.04l-.71 3.08H72.16L74.972.183h1.252l2.81 11.847H77.83M83.112 1.282h-1.067v9.647h1.05c1.625 0 2.642-1.338 2.642-4.859 0-3.232-.897-4.788-2.625-4.788m-.135 10.747H80.86V.18h2.302c2.505 0 3.757 2.015 3.757 5.84 0 4.147-1.49 6.01-3.943 6.01M89.02 12.03h1.184V.18H89.02v11.85zM95.06 12.215c-1.49 0-2.402-.88-2.91-2.353l1.084-.49c.456 1.15.998 1.743 1.86 1.743 1.015 0 1.642-.66 1.642-1.642 0-1.15-.49-2.08-2.048-3.18-1.675-1.187-2.284-2.05-2.284-3.607 0-1.54 1.033-2.69 2.623-2.69 1.455 0 2.184.76 2.76 1.98l-1.016.575c-.473-.93-.93-1.455-1.793-1.455-.948 0-1.388.762-1.388 1.507 0 .948.303 1.624 1.843 2.708 1.794 1.235 2.488 2.387 2.488 4.027 0 1.677-1.08 2.878-2.86 2.878M102.95 1.095c-1.323 0-2.17 1.693-2.17 5.01 0 3.3.883 5.01 2.22 5.01 1.32 0 2.183-1.693 2.183-5.01 0-3.3-.898-5.01-2.234-5.01m.015 11.12c-2.234 0-3.367-2.268-3.367-6.11 0-3.826 1.15-6.11 3.385-6.11 2.232 0 3.386 2.268 3.386 6.11 0 3.826-1.17 6.11-3.405 6.11M113.56 12.03l-2.842-6.5c-.424-.983-.932-2.168-1.22-2.912 0 .456.017 1.59.017 2.302v7.11H108.4V.18h1.15l2.692 6.193c.455 1.067.964 2.252 1.234 2.912-.016-.44-.034-1.592-.034-2.302V.182h1.118V12.03h-1M126.847 12.03V4.937c0-.61.016-1.576.016-2.082-.117.71-.337 1.455-.593 2.352l-2.063 7.158-2.064-7.158c-.256-.897-.44-1.624-.577-2.352 0 .506.017 1.404.017 2.082v7.09h-1.1V.183h1.303l1.794 6.227c.29 1.032.543 2.013.626 2.808.102-.795.373-1.776.66-2.81l1.795-6.226h1.287V12.03h-1.1M133.836 4.886c-.252-1.116-.507-2.35-.642-3.232-.12.88-.39 2.15-.643 3.25l-.66 2.944h2.606l-.66-2.962zm1.608 7.143l-.693-3.082h-3.098l-.708 3.08h-1.17l2.81-11.846h1.252l2.81 11.847h-1.202M141.2 12.215c-2.2 0-3.27-2.302-3.27-6.11 0-3.757 1.1-6.11 3.32-6.11 1.54 0 2.304 1.067 2.81 2.54l-1.068.474c-.49-1.458-.963-1.915-1.776-1.915-1.32 0-2.1 1.743-2.1 5.01 0 3.3.814 5.01 2.15 5.01 1.27 0 1.915-1.05 1.915-3.097V7.12h-1.59V6.004h2.74V7.9c0 2.505-1.014 4.315-3.13 4.315M149.63 4.886c-.255-1.116-.51-2.35-.644-3.232-.12.88-.39 2.15-.645 3.25l-.658 2.944h2.607l-.66-2.962zm1.608 7.143l-.694-3.082h-3.1l-.71 3.08h-1.167l2.81-11.846h1.252l2.808 11.847h-1.2M153.81 12.03v-1.034l4.13-9.004c.133-.288.25-.507.352-.728h-4.196V.182h5.4v1.032l-4.114 9.003c-.118.256-.236.51-.355.73h4.47v1.082h-5.688M161.595 12.03h1.184V.18h-1.185v11.85zM170.394 12.03l-2.843-6.5c-.42-.983-.93-2.168-1.218-2.912 0 .456.018 1.59.018 2.302v7.11h-1.116V.18h1.15l2.69 6.193c.46 1.067.967 2.252 1.24 2.912-.02-.44-.038-1.592-.038-2.302V.182h1.12V12.03h-1.002M173.764 12.03V.18h5.06v1.1h-3.877V5.14h2.438v1.118h-2.438v4.67h4.08v1.1h-5.263M181.735 3.362h-.71l.186-3.18h1.406l-.88 3.18M185.9 12.215c-1.117 0-1.946-.626-2.502-1.455l.827-.745c.557.727 1.05 1.15 1.71 1.15.864 0 1.354-.456 1.354-1.15 0-.796-.322-1.253-1.66-2.082-1.387-.83-2.03-1.455-2.03-2.776 0-1.268.946-2.2 2.3-2.2 1.067 0 1.847.508 2.336 1.287l-.86.727c-.41-.558-.847-.964-1.54-.964-.695 0-1.12.424-1.12 1.067 0 .693.324 1.066 1.593 1.86 1.385.848 2.096 1.54 2.096 2.947 0 1.47-1.15 2.335-2.506 2.335" fill="#fff"/><path d="M7.184 68.792l3.304-4.415c.814-1.118 1.082-1.767.89-2.443-.206-.724-.827-1.017-1.6-.798-.757.213-1.224.833-1.82 2.1L5.35 62.077c.764-1.903 1.73-3.1 3.903-3.717 2.462-.696 4.568.29 5.17 2.414l.01.032c.51 1.804-.158 3.002-1.49 4.684l-1.55 1.898 4.652-1.317.722 2.544-8.916 2.528-.666-2.35M23.727 60.59l-.01-.033c-.51-1.804-1.716-2.87-2.972-2.514-1.24.35-1.7 1.855-1.19 3.657l.01.034c.512 1.802 1.715 2.853 2.97 2.496 1.255-.355 1.698-1.853 1.192-3.64m-7.292 2.066l-.008-.032c-.904-3.187.366-6.434 3.57-7.342 3.204-.91 5.947 1.166 6.85 4.35l.01.034c.904 3.188-.35 6.43-3.57 7.343-3.203.907-5.948-1.166-6.852-4.354M29.102 55.987l-1.772.99-1.28-2.246 3.036-1.868 2.27-.644 3.216 11.35-3.074.87-2.396-8.45M41.57 57.635l-.01-.032c-.233-.82-1.038-1.27-2.02-.993-.982.278-1.39 1.054-1.156 1.876l.01.032c.232.82 1.026 1.292 2.01 1.012.98-.277 1.398-1.074 1.165-1.895m-4.16 3.978c-1.074-.6-1.98-1.715-2.58-3.824l-.01-.033c-.993-3.51-.045-6.665 3.48-7.665 1.578-.446 2.795-.322 4.1.177l-.842 2.603c-.84-.32-1.578-.474-2.478-.22-1.628.462-1.617 2.094-1.44 3.018.562-.767 1.216-1.283 2.183-1.558 1.98-.56 4.073.2 4.713 2.457l.01.03c.71 2.51-.863 4.626-3.325 5.325-1.593.452-2.76.26-3.81-.31" fill="#211d1d"/></svg>