<svg xmlns="http://www.w3.org/2000/svg" viewBox="0 0 224.0625 102.35" height="102.35" width="224.063"><path d="M77.75 61.806c2.69 0 4.46-1.114 4.46-4.917 0-3.805-1.77-5.05-4.46-5.05H67.127v9.966H77.75zm-1.248-19.213c2.69 0 4.46-.723 4.46-4.525 0-3.806-1.77-4.328-4.46-4.328h-9.375v8.853h9.375zM54.404 23.51h22.098c11.346 0 17.38 1.965 17.38 11.934 0 7.61-2.82 9.967-7.344 11.214 4.46.92 8.59 3.476 8.59 11.543 0 10.1-4.655 13.575-17.377 13.575H54.405V23.51" fill="#9c1b20"/><path d="M96.767 23.51h34.56v11.08h-21.71v7.412h17.51v11.083h-17.51v7.935h21.71v10.755h-34.56V23.51" fill="#d01e25"/><path d="M132.308 70.727l1.967-10.625c1.575.393 11.805 1.638 16.198 1.638 6.1 0 7.148-.655 7.148-3.998 0-3.214-.915-3.478-8.458-4.854-13.97-2.493-17.052-4.526-17.052-15.74 0-11.016 7.02-14.294 18.56-14.294 5.574 0 15.41.983 17.837 1.77l-1.967 10.69c-4-.59-10.1-1.51-15.936-1.51-4.657 0-5.575.984-5.575 3.607 0 3.28.918 3.477 7.61 4.657 14.95 2.69 18.098 4.263 18.098 15.805 0 10.887-5.968 14.56-20.395 14.56-8.46 0-16.002-1.25-18.035-1.705" fill="#9c1b20"/><path d="M184.048 34.59h-15.345V23.51h43.608v11.08H196.9v37.184H184.05V34.59" fill="#d01e25"/><path d="M37.534 47.01c.056-.632 1.48-.834 2.177-2.238.263 1.547 1.564 2.154 1.435 2.776l-.018-.007c.147-.617 1.586-.61 2.48-1.896.03 1.567 1.234 2.358 1.014 2.953l-.015-.01c.236-.588 1.658-.37 2.73-1.515-.197 1.555.876 2.513.572 3.068l-.014-.01c.318-.547 1.693-.128 2.922-1.1-.42 1.507.5 2.612.12 3.118l-.015-.013c.395-.496 1.695.12 3.05-.665-.634 1.43.116 2.658-.333 3.103l-.012-.015c.463-.43 1.66.367 3.115-.212-.837 1.324-.273 2.647-.784 3.022l-.008-.017c.522-.36 1.587.605 3.11.243-1.02 1.187-.653 2.578-1.213 2.875l-.005-.017c.567-.28 1.482.83 3.044.693-1.184 1.026-1.025 2.458-1.62 2.67l-.004-.02c.602-.196 1.347 1.035 2.91 1.128-1.32.844-1.37 2.28-1.99 2.405l-.003-.018c.625-.107 1.182 1.22 2.716 1.54-1.428.643-1.686 2.057-2.32 2.09l.002-.02c.633-.013.99 1.38 2.46 1.92-1.504.427-1.967 1.787-2.598 1.727l.005-.02c.63.08.78 1.51 2.157 2.258-1.554.204-2.21 1.484-2.825 1.333l.007-.018c.612.17.554 1.606 1.805 2.548-1.565-.026-2.4 1.145-2.987.906l.01-.017c.58.258.314 1.67 1.416 2.783-1.546-.252-2.543.786-3.088.46l.012-.01c.537.336.066 1.695.996 2.957-1.494-.475-2.63.407-3.122.007l.014-.01c.48.41-.183 1.688.554 3.07-1.41-.687-2.66.02-3.09-.445l.016-.013c.416.478-.426 1.646.1 3.122-1.293-.887-2.635-.368-2.99-.89l.015-.01c.344.534-.66 1.565-.354 3.1-1.15-1.064-2.554-.746-2.83-1.316l.017-.007c.262.58-.88 1.455-.8 3.02-.985-1.22-2.42-1.112-2.61-1.718l.02-.003c.17.61-1.085 1.308-1.234 2.868-.796-1.35-2.23-1.452-2.33-2.077h.018c.085.63-1.26 1.137-1.635 2.658-.592-1.45-1.995-1.76-2.005-2.394l.02.002c-.01.634-1.414.943-2.007 2.392-.373-1.523-1.718-2.032-1.633-2.66l.017.004c-.1.627-1.536.726-2.332 2.076-.148-1.56-1.404-2.262-1.23-2.87l.017.006c-.19.605-1.625.495-2.61 1.712.08-1.566-1.06-2.44-.798-3.016l.016.01c-.278.57-1.68.25-2.83 1.313.305-1.537-.694-2.568-.352-3.103l.015.013c-.36.525-1.698.004-2.995.886.53-1.475-.31-2.64.106-3.12l.014.016c-.43.464-1.682-.243-3.093.442.738-1.383.077-2.66.56-3.07l.01.013c-.494.4-1.628-.482-3.122-.008.93-1.263.463-2.622 1-2.96l.007.02c-.546.32-1.54-.72-3.087-.47 1.106-1.11.84-2.524 1.42-2.78l.005.02c-.588.238-1.42-.933-2.986-.912 1.254-.938 1.197-2.376 1.81-2.546l.002.02c-.615.152-1.27-1.13-2.822-1.335 1.376-.748 1.53-2.178 2.16-2.255l-.002.02c-.63.06-1.09-1.3-2.595-1.734 1.47-.535 1.83-1.926 2.464-1.914l-.004.018c-.633-.03-.888-1.445-2.317-2.09 1.532-.317 2.09-1.644 2.717-1.537l-.006.018c-.622-.125-.67-1.56-1.988-2.406 1.565-.093 2.31-1.323 2.914-1.127l-.01.018c-.597-.213-.435-1.64-1.615-2.67 1.56.138 2.476-.97 3.046-.688l-.01.016c-.562-.3-.193-1.688-1.213-2.878 1.525.364 2.593-.6 3.113-.238l-.013.013c-.51-.376.057-1.698-.778-3.02 1.453.58 2.65-.218 3.114.215l-.017.013c-.45-.446.303-1.672-.33-3.104 1.356.786 2.654.172 3.05.67l-.017.006c-.38-.507.543-1.61.124-3.117 1.227.972 2.602.555 2.92 1.102l-.016.008c-.304-.557.77-1.513.576-3.068 1.07 1.144 2.493.93 2.728 1.52l-.02.003c-.216-.594.985-1.384 1.02-2.95.892 1.286 2.33 1.283 2.475 1.9h-.017c-.13-.62 1.174-1.226 1.436-2.77.697 1.403 2.12 1.608 2.175 2.24l-.002-.017c-.037-.634 1.343-1.044 1.824-2.534.483 1.49 1.863 1.9 1.824 2.534v.013" fill="#b5c3c8"/><path d="M73.897 80.702c-1.604 0-2.51 1.338-2.51 3.93s.947 3.97 2.552 3.97c1.604 0 2.508-1.337 2.508-3.93 0-2.59-.946-3.97-2.55-3.97m0 11.377c-3.91 0-6.646-2.614-6.646-7.407s2.778-7.446 6.687-7.446c3.907 0 6.644 2.61 6.644 7.405 0 4.794-2.78 7.447-6.687 7.447M86.878 80.847v1.995h4.505v3.374h-4.505v5.638h-3.97V77.452h11.396v3.395h-7.426M110.843 91.853v-3.437c0-1.418.02-2.714.082-3.826-.432 1.07-1.172 2.737-1.666 3.765l-1.893 3.992-1.893-3.992c-.494-1.028-1.234-2.694-1.666-3.765.06 1.112.082 2.408.082 3.826v3.437h-3.744v-14.4h3.662l1.768 3.846c.864 1.85 1.586 3.538 1.81 4.34.248-.823.907-2.386 1.81-4.34l1.77-3.846h3.62v14.4h-3.743M124.79 85.207c-.514-1.85-.74-2.632-.925-3.6-.186.968-.413 1.77-.927 3.6l-.267.948h2.39l-.27-.948zm2.016 6.647l-.782-2.53h-4.32l-.782 2.53h-4.277l5.223-14.4h4.033l5.226 14.4h-4.32M138.202 80.868h-.988v7.57h.865c2.487 0 3.455-.946 3.455-3.805 0-2.654-.844-3.765-3.333-3.765m-.35 10.986h-4.67V77.452h5.04c4.527 0 7.407 1.708 7.407 7.12 0 5.41-2.675 7.282-7.777 7.282M148.137 91.853h4.074v-14.4h-4.073v14.4zM160.748 92.08c-2.325 0-4.567-.763-6.07-1.75l1.935-3.127c1.048.722 2.88 1.44 4.218 1.44 1.42 0 1.872-.246 1.872-.924 0-.538-.514-.865-2.448-1.32-3.475-.802-5.143-1.747-5.143-4.627 0-2.717 2.2-4.546 5.68-4.546 2.448 0 4.215.596 5.738 1.666l-1.934 3.125c-1.275-.862-2.55-1.357-4.01-1.357-1.194 0-1.48.372-1.48.886 0 .535.512.782 2.364 1.215 3.62.863 5.225 1.975 5.225 4.67 0 3.29-2.49 4.65-5.945 4.65M175.15 80.702c-1.604 0-2.51 1.338-2.51 3.93s.946 3.97 2.553 3.97c1.602 0 2.508-1.337 2.508-3.93 0-2.59-.945-3.97-2.55-3.97m0 11.377c-3.91 0-6.644-2.614-6.644-7.407s2.775-7.446 6.686-7.446c3.908 0 6.644 2.61 6.644 7.405 0 4.794-2.777 7.447-6.685 7.447M193.54 91.853l-3.434-4.752c-.636-.884-1.87-2.735-2.242-3.372.102.637.123 2.55.123 3.723v4.403h-3.826v-14.4h3.52l3.166 4.257c.66.887 1.934 2.798 2.243 3.396-.104-.638-.125-2.55-.125-3.723v-3.93h3.826v14.4h-3.25M27.37 87.06c-1.06.294-1.9-.067-2.607-.752l.72-1.002c.657.593 1.113.7 1.63.556.638-.177.903-.665.713-1.35-.18-.65-.562-.947-1.9-1.378-1.123-.36-2.038-.766-2.406-2.09-.34-1.225.233-2.332 1.544-2.696.973-.27 1.652-.017 2.36.575l-.65 1.01c-.56-.427-.89-.542-1.42-.395-.565.158-.777.604-.63 1.132.174.627.56.895 1.665 1.236 1.233.382 2.243.8 2.633 2.208.374 1.346-.162 2.53-1.654 2.946M31.01 85.905l-2.34-8.416 1.18-.33 2.338 8.418-1.177.327M33.933 85.093l-2.34-8.417 1.177-.328 2.02 7.264 2.694-.75.32 1.155-3.87 1.076M40.497 83.267l-.877.244-4.505-7.813 1.286-.358 2.15 3.95c.216.405.723 1.39.866 1.674-.024-.317-.095-1.412-.122-1.882l-.212-4.488 1.25-.347.165 9.02M43.815 82.345l-2.34-8.417 3.957-1.1.318 1.142-2.78.773.626 2.25 1.816-.506.315 1.13-1.817.503.766 2.755 2.935-.816.318 1.14-4.113 1.145M49.416 72.95l-1.094.304.688 2.48 1.095-.306c.757-.21 1.123-.714.88-1.592-.242-.866-.86-1.083-1.57-.885m3.178 6.954L50.3 76.592l-.975.27 1.02 3.667-1.178.326-2.342-8.416 2.37-.66c1.226-.34 2.53.01 2.993 1.683.338 1.213 0 2.046-.708 2.58l2.424 3.497-1.31.364M77.618 19.264v-7.09c0-.612.018-1.577.018-2.083-.12.71-.34 1.456-.592 2.353L74.978 19.6l-2.064-7.157c-.254-.897-.44-1.624-.575-2.352 0 .507.015 1.405.015 2.083v7.09h-1.1V7.418h1.302l1.794 6.227c.29 1.033.544 2.014.628 2.81.103-.796.373-1.777.662-2.81l1.792-6.227h1.287v11.847h-1.102M84.608 12.12c-.254-1.115-.507-2.35-.642-3.23-.12.88-.39 2.15-.644 3.25l-.66 2.943h2.606l-.66-2.962zm1.608 7.144l-.693-3.08h-3.098l-.71 3.08h-1.17l2.81-11.847h1.253l2.81 11.847h-1.202M91.497 8.517H90.43v9.647h1.05c1.625 0 2.642-1.337 2.642-4.858 0-3.233-.897-4.79-2.625-4.79m-.135 10.748h-2.117V7.416h2.302c2.505 0 3.757 2.015 3.757 5.84 0 4.147-1.488 6.008-3.942 6.008M97.404 19.264h1.185V7.416h-1.186v11.848zM103.445 19.45c-1.49 0-2.402-.88-2.912-2.353l1.086-.49c.455 1.15.997 1.743 1.86 1.743 1.014 0 1.64-.66 1.64-1.642 0-1.15-.49-2.08-2.047-3.18-1.675-1.187-2.284-2.05-2.284-3.607 0-1.538 1.03-2.69 2.622-2.69 1.455 0 2.184.762 2.76 1.98l-1.016.576c-.474-.932-.93-1.456-1.794-1.456-.948 0-1.388.762-1.388 1.507 0 .948.304 1.624 1.844 2.708 1.794 1.236 2.488 2.387 2.488 4.027 0 1.677-1.082 2.88-2.86 2.88M111.334 8.33c-1.322 0-2.168 1.693-2.168 5.01 0 3.3.88 5.01 2.218 5.01 1.322 0 2.184-1.693 2.184-5.01 0-3.3-.898-5.01-2.234-5.01m.016 11.12c-2.234 0-3.367-2.268-3.367-6.11 0-3.826 1.15-6.11 3.385-6.11 2.232 0 3.385 2.268 3.385 6.11 0 3.826-1.167 6.11-3.403 6.11M121.946 19.264l-2.843-6.5c-.424-.98-.932-2.167-1.22-2.91 0 .455.016 1.59.016 2.3v7.11h-1.117V7.417h1.152l2.692 6.193c.455 1.067.964 2.252 1.233 2.912-.016-.44-.033-1.59-.033-2.3V7.416h1.118v11.847h-1M135.232 19.264v-7.09c0-.612.015-1.577.015-2.083-.117.71-.337 1.456-.592 2.353L132.59 19.6l-2.063-7.157c-.255-.897-.44-1.624-.576-2.352 0 .507.02 1.405.02 2.083v7.09h-1.102V7.418h1.303l1.795 6.227c.29 1.033.542 2.014.626 2.81.102-.796.374-1.777.66-2.81l1.795-6.227h1.288v11.847h-1.1M142.22 12.12c-.25-1.115-.506-2.35-.64-3.23-.12.88-.393 2.15-.644 3.25l-.662 2.943h2.607l-.66-2.962zm1.61 7.144l-.694-3.08h-3.1l-.71 3.08h-1.166l2.81-11.847h1.25l2.81 11.847h-1.2M149.584 19.45c-2.2 0-3.268-2.3-3.268-6.11 0-3.757 1.1-6.11 3.318-6.11 1.54 0 2.305 1.067 2.81 2.54l-1.066.473c-.49-1.457-.964-1.913-1.777-1.913-1.32 0-2.098 1.743-2.098 5.01 0 3.3.813 5.01 2.15 5.01 1.27 0 1.913-1.05 1.913-3.097v-.898h-1.59V13.24h2.74v1.895c0 2.505-1.015 4.316-3.13 4.316M158.012 12.12c-.253-1.115-.507-2.35-.642-3.23-.12.88-.39 2.15-.644 3.25l-.66 2.943h2.608l-.662-2.962zm1.61 7.144l-.693-3.08h-3.1l-.71 3.08h-1.167l2.808-11.847h1.253l2.81 11.847h-1.2M162.194 19.264V18.23l4.13-9.003c.133-.288.252-.507.353-.728h-4.196V7.416h5.4V8.45l-4.113 9.002c-.118.256-.236.51-.355.73h4.47v1.082h-5.688M169.98 19.264h1.184V7.416h-1.184v11.848zM178.78 19.264l-2.844-6.5c-.422-.98-.93-2.167-1.22-2.91 0 .455.02 1.59.02 2.3v7.11h-1.117V7.417h1.15l2.69 6.193c.458 1.067.965 2.252 1.238 2.912-.02-.44-.037-1.59-.037-2.3V7.416h1.12v11.847h-1M182.15 19.264V7.417h5.06v1.1h-3.877v3.858h2.437v1.118h-2.438v4.67h4.08v1.1h-5.263M190.12 10.598h-.71l.186-3.182H191l-.88 3.182M194.285 19.45c-1.117 0-1.946-.626-2.502-1.455l.827-.745c.557.727 1.05 1.15 1.71 1.15.864 0 1.354-.456 1.354-1.15 0-.795-.322-1.253-1.66-2.082-1.387-.83-2.03-1.455-2.03-2.776 0-1.268.947-2.2 2.3-2.2 1.07 0 1.85.508 2.337 1.287l-.86.726c-.407-.56-.846-.965-1.54-.965-.694 0-1.12.425-1.12 1.067 0 .694.325 1.067 1.594 1.862 1.386.845 2.097 1.54 2.097 2.945 0 1.47-1.15 2.336-2.505 2.336M15.57 76.027l3.302-4.415c.815-1.118 1.084-1.767.89-2.443-.205-.725-.827-1.018-1.6-.8-.756.214-1.223.834-1.82 2.1l-2.608-1.157c.765-1.903 1.73-3.1 3.904-3.716 2.462-.697 4.568.29 5.17 2.412l.01.03c.51 1.805-.158 3.003-1.49 4.685l-1.55 1.898 4.652-1.317.72 2.543-8.915 2.527-.666-2.35M32.112 67.824l-.01-.032c-.51-1.804-1.716-2.87-2.973-2.514-1.24.35-1.7 1.856-1.19 3.657l.01.034c.51 1.8 1.715 2.852 2.97 2.496 1.255-.356 1.698-1.854 1.192-3.642M24.82 69.89l-.008-.03c-.904-3.188.366-6.435 3.57-7.343 3.203-.91 5.947 1.166 6.85 4.35l.01.034c.903 3.19-.35 6.432-3.57 7.344-3.203.908-5.947-1.164-6.852-4.353M37.487 63.222l-1.772.99-1.28-2.245 3.036-1.87 2.27-.644 3.218 11.35-3.075.87-2.396-8.45M49.954 64.87l-.01-.032c-.233-.82-1.037-1.27-2.02-.992-.982.277-1.388 1.053-1.155 1.876l.008.032c.233.82 1.027 1.29 2.01 1.01.98-.276 1.4-1.073 1.166-1.894m-4.16 3.978c-1.073-.6-1.98-1.715-2.578-3.824l-.01-.032c-.994-3.51-.046-6.666 3.48-7.665 1.577-.446 2.794-.322 4.1.177l-.843 2.604c-.838-.318-1.578-.474-2.48-.22-1.626.463-1.615 2.094-1.44 3.018.564-.768 1.218-1.283 2.185-1.558 1.98-.56 4.073.2 4.712 2.456l.01.032c.712 2.51-.863 4.626-3.324 5.325-1.594.452-2.762.26-3.81-.31" fill="#211d1d"/></svg>